/* XPM */
static char *_5116_bd973813bebff9b8440758a0a634a2360570b1a84fb3f55e9d0f8bc54e376920[] = {
/* columns rows colors chars-per-pixel */
"64 64 5 1 ",
"  c black",
". c #006666",
"X c #00CCCC",
"o c white",
"O c #000000",
/* pixels */
"OOOOOOOOOOOOOOOOOOOOOOOOOOOOOOOOOOOOOOOOOOOOOOOOOOOOOOOOOOOOOOOO",
"OOOOOOOOOOOOOOOOOOOOOOOOOOOOOOOOOOOOOOOOOOOOOOOOOOOOOOOOOOOOOOOO",
"OOOOOOOOOOOOOOOOOOOOOOOOOOOOOOOOOOOOOOOOOOOOOOOOOOOOOOOOOOOOOOOO",
"OOOOOOOOOOOOOOOOOOOOOOOOOOOOOOOOOOOOOOOOOOOOOOOOOOOOOOOOOOOOOOOO",
"OOOOOOOOOOOOOOOOOOOOOOOOOOOOOOOOOOOOOOOOOOOOOOOOOOOOOOOOOOOOOOOO",
"OOOOOOOOOOOOOOOOOOOOOOOOOOOOOOOOOOOOOOOOOOOOOOOOOOOOOOOOOOOOOOOO",
"OOOOOOOOOOOOOOOOOOOOOOOOOOOOOOOOOOOOOOOOOOOOOOOOOOOOOOOOOOOOOOOO",
"OOOOOOOOOOOOOOOOOOOOOOOOOOOOOOOOOOOOOOOOOOOOOOOOOOOOOOOOOOOOOOOO",
"OOOOOOOOOOOOOOOO        OOOOOOOOOOOOOOOO        OOOOOOOOOOOOOOOO",
"OOOOOOOOOOOOOOOO        OOOOOOOOOOOOOOOO        OOOOOOOOOOOOOOOO",
"OOOOOOOOOOOOOOOO        OOOOOOOOOOOOOOOO        OOOOOOOOOOOOOOOO",
"OOOOOOOOOOOOOOOO        OOOOOOOOOOOOOOOO        OOOOOOOOOOOOOOOO",
"OOOOOOOO        XXXX....    OOOOOOOO    XXXXXXXX        OOOOOOOO",
"OOOOOOOO        XXXX....    OOOOOOOO    XXXXXXXX        OOOOOOOO",
"OOOOOOOO        XXXX....    OOOOOOOO    XXXXXXXX        OOOOOOOO",
"OOOOOOOO        XXXX....    OOOOOOOO    XXXXXXXX        OOOOOOOO",
"OOOO    XXXXXXXXXXXX....    OOOOOOOO    XXXXXXXXXXXX....    OOOO",
"OOOO    XXXXXXXXXXXX....    OOOOOOOO    XXXXXXXXXXXX....    OOOO",
"OOOO    XXXXXXXXXXXX....    OOOOOOOO    XXXXXXXXXXXX....    OOOO",
"OOOO    XXXXXXXXXXXX....    OOOOOOOO    XXXXXXXXXXXX....    OOOO",
"OOOO    XXXXXXXXXXXXXXXXXXXX        XXXXXXXXXXXXXXXX....    OOOO",
"OOOO    XXXXXXXXXXXXXXXXXXXX        XXXXXXXXXXXXXXXX....    OOOO",
"OOOO    XXXXXXXXXXXXXXXXXXXX        XXXXXXXXXXXXXXXX....    OOOO",
"OOOO    XXXXXXXXXXXXXXXXXXXX        XXXXXXXXXXXXXXXX....    OOOO",
"OOOO    ....XXXXooooooooXXXXXXXXXXXXXXXXXXXXXXXX........    OOOO",
"OOOO    ....XXXXooooooooXXXXXXXXXXXXXXXXXXXXXXXX........    OOOO",
"OOOO    ....XXXXooooooooXXXXXXXXXXXXXXXXXXXXXXXX........    OOOO",
"OOOO    ....XXXXooooooooXXXXXXXXXXXXXXXXXXXXXXXX........    OOOO",
"OOOOOOOO    XXXXooooXXXXXXXXXXXXXXXXXXXXXXXX........    OOOOOOOO",
"OOOOOOOO    XXXXooooXXXXXXXXXXXXXXXXXXXXXXXX........    OOOOOOOO",
"OOOOOOOO    XXXXooooXXXXXXXXXXXXXXXXXXXXXXXX........    OOOOOOOO",
"OOOOOOOO    XXXXooooXXXXXXXXXXXXXXXXXXXXXXXX........    OOOOOOOO",
"OOOOOOOO    ....XXXXXXXXXXXXXXXXXXXXXXXXXXXX........    OOOOOOOO",
"OOOOOOOO    ....XXXXXXXXXXXXXXXXXXXXXXXXXXXX........    OOOOOOOO",
"OOOOOOOO    ....XXXXXXXXXXXXXXXXXXXXXXXXXXXX........    OOOOOOOO",
"OOOOOOOO    ....XXXXXXXXXXXXXXXXXXXXXXXXXXXX........    OOOOOOOO",
"OOOOOOOOOOOO    XXXXXXXXXXXXXXXXXXXXXXXXXXXX....    OOOOOOOOOOOO",
"OOOOOOOOOOOO    XXXXXXXXXXXXXXXXXXXXXXXXXXXX....    OOOOOOOOOOOO",
"OOOOOOOOOOOO    XXXXXXXXXXXXXXXXXXXXXXXXXXXX....    OOOOOOOOOOOO",
"OOOOOOOOOOOO    XXXXXXXXXXXXXXXXXXXXXXXXXXXX....    OOOOOOOOOOOO",
"OOOOOOOOOOOO    XXXXXXXXXXXXXXXXXXXXXXXX........    OOOOOOOOOOOO",
"OOOOOOOOOOOO    XXXXXXXXXXXXXXXXXXXXXXXX........    OOOOOOOOOOOO",
"OOOOOOOOOOOO    XXXXXXXXXXXXXXXXXXXXXXXX........    OOOOOOOOOOOO",
"OOOOOOOOOOOO    XXXXXXXXXXXXXXXXXXXXXXXX........    OOOOOOOOOOOO",
"OOOOOOOOOOOO    ....XXXXXXXXXXXXXXXX............    OOOOOOOOOOOO",
"OOOOOOOOOOOO    ....XXXXXXXXXXXXXXXX............    OOOOOOOOOOOO",
"OOOOOOOOOOOO    ....XXXXXXXXXXXXXXXX............    OOOOOOOOOOOO",
"OOOOOOOOOOOO    ....XXXXXXXXXXXXXXXX............    OOOOOOOOOOOO",
"OOOOOOOOOOOO    ................................    OOOOOOOOOOOO",
"OOOOOOOOOOOO    ................................    OOOOOOOOOOOO",
"OOOOOOOOOOOO    ................................    OOOOOOOOOOOO",
"OOOOOOOOOOOO    ................................    OOOOOOOOOOOO",
"OOOOOOOOOOOOOOOO    ........................    OOOOOOOOOOOOOOOO",
"OOOOOOOOOOOOOOOO    ........................    OOOOOOOOOOOOOOOO",
"OOOOOOOOOOOOOOOO    ........................    OOOOOOOOOOOOOOOO",
"OOOOOOOOOOOOOOOO    ........................    OOOOOOOOOOOOOOOO",
"OOOOOOOOOOOOOOOOOOOO                        OOOOOOOOOOOOOOOOOOOO",
"OOOOOOOOOOOOOOOOOOOO                        OOOOOOOOOOOOOOOOOOOO",
"OOOOOOOOOOOOOOOOOOOO                        OOOOOOOOOOOOOOOOOOOO",
"OOOOOOOOOOOOOOOOOOOO                        OOOOOOOOOOOOOOOOOOOO",
"OOOOOOOOOOOOOOOOOOOOOOOOOOOOOOOOOOOOOOOOOOOOOOOOOOOOOOOOOOOOOOOO",
"OOOOOOOOOOOOOOOOOOOOOOOOOOOOOOOOOOOOOOOOOOOOOOOOOOOOOOOOOOOOOOOO",
"OOOOOOOOOOOOOOOOOOOOOOOOOOOOOOOOOOOOOOOOOOOOOOOOOOOOOOOOOOOOOOOO",
"OOOOOOOOOOOOOOOOOOOOOOOOOOOOOOOOOOOOOOOOOOOOOOOOOOOOOOOOOOOOOOOO"
};
