/* XPM */
static char *_4054_b3a269dfb4e61f04ecc44ab6d2cce1afcb4108f08327a8386aa5bbaae339342b[] = {
/* columns rows colors chars-per-pixel */
"64 64 179 2 ",
"   c #27180F",
".  c #301F0F",
"X  c #2A1613",
"o  c #2F1812",
"O  c #331B16",
"+  c #371E18",
"@  c #2E200F",
"#  c #33230F",
"$  c #38270F",
"%  c #39280F",
"&  c #362511",
"*  c #392712",
"=  c #362A10",
"-  c #3C2A13",
";  c #3F3112",
":  c #422E14",
">  c #41221C",
",  c #4B281E",
"<  c #463115",
"1  c #483216",
"2  c #453118",
"3  c #4C351B",
"4  c #4D381D",
"5  c #4D2920",
"6  c #542D25",
"7  c #5C3126",
"8  c #5E3329",
"9  c #5C3D33",
"0  c #623427",
"q  c #63352B",
"w  c #66382B",
"e  c #6B3E2D",
"r  c #703B2F",
"t  c #733E31",
"y  c #064A06",
"u  c #084808",
"i  c #065206",
"p  c #065309",
"a  c #0A540A",
"s  c #066409",
"d  c #02760A",
"f  c #047C0D",
"g  c #0B7310",
"h  c #6E412E",
"j  c #71442F",
"k  c #644336",
"l  c #684738",
"z  c #6D4839",
"x  c #744531",
"c  c #7C4335",
"v  c #764933",
"b  c #7B4C36",
"n  c #774D39",
"m  c #7D4F38",
"M  c #7E5037",
"N  c #7D513A",
"B  c #754E42",
"V  c #7F5B4A",
"C  c #665E5C",
"Z  c #726E6C",
"A  c #73706F",
"S  c #757271",
"D  c #797675",
"F  c #7B7876",
"G  c #824437",
"H  c #824638",
"J  c #83533B",
"K  c #88573D",
"L  c #87583E",
"P  c #8A593F",
"I  c #845643",
"U  c #895744",
"Y  c #875845",
"T  c #8D5C41",
"R  c #8D5E4C",
"E  c #915E42",
"W  c #9C5A47",
"Q  c #9F5749",
"!  c #9E5B4A",
"~  c #A15D4C",
"^  c #A25F50",
"/  c #86604B",
"(  c #946245",
")  c #986546",
"_  c #96644D",
"`  c #9B664A",
"'  c #9E694A",
"]  c #8D6A51",
"[  c #916351",
"{  c #9A6653",
"}  c #9E6B55",
"|  c #956E59",
" . c #9C6E5B",
".. c #96705B",
"X. c #9A725C",
"o. c #A2624E",
"O. c #A26C4C",
"+. c #A7704F",
"@. c #A9714F",
"#. c #A56452",
"$. c #A86756",
"%. c #A66A54",
"&. c #A96C56",
"*. c #A36E5B",
"=. c #AA6D5A",
"-. c #A77050",
";. c #AA7351",
":. c #A3735E",
">. c #AD735C",
",. c #AD785E",
"<. c #B0765E",
"1. c #B0785F",
"2. c #9C7762",
"3. c #A67461",
"4. c #AD7461",
"5. c #A47B61",
"6. c #AC7A65",
"7. c #AE7C68",
"8. c #B17562",
"9. c #B37C64",
"0. c #B57E69",
"q. c #00860D",
"w. c #08840F",
"e. c #028B0D",
"r. c #03920E",
"t. c #009B0F",
"y. c #009D10",
"u. c #0C9C1A",
"i. c #00A20F",
"p. c #02A80E",
"a. c #00A411",
"s. c #01AC12",
"d. c #00B313",
"f. c #AA8067",
"g. c #AC8C6C",
"h. c #B58166",
"j. c #B6826B",
"k. c #B9846D",
"l. c #B6886A",
"z. c #BC8A6E",
"x. c #AF906F",
"c. c #AF8474",
"v. c #B38674",
"b. c #BB8770",
"n. c #B68870",
"m. c #BD8C74",
"M. c #B58A79",
"N. c #BE8F79",
"B. c #B29272",
"V. c #BD9074",
"C. c #BE917A",
"Z. c #C08E74",
"A. c #C08F78",
"S. c #C19174",
"D. c #C2947B",
"F. c #C6997F",
"G. c #858282",
"H. c #9D9A96",
"J. c #BF9381",
"K. c #B6B3B2",
"L. c #BAB7B8",
"P. c #C19683",
"I. c #C59982",
"U. c #C99D83",
"Y. c #C59C8A",
"T. c #C5A285",
"R. c #CBA186",
"E. c #CDA48A",
"W. c #C0BEBE",
"Q. c #C3C1C1",
"!. c #CECCCA",
"~. c #D1CECD",
"^. c #D5D4D4",
"/. c #DBDBDA",
"(. c #EDEFEE",
"). c #EEF0F2",
"_. c #F2F2F2",
"`. c #F8F9F7",
"'. c #FDFDFD",
/* pixels */
"1.9.9.9.9.h.9.h.>.>.8.8.4.8.8.8.z.n.m.z.m.m.m.m.9.0.0.0.0.0.0.0.9.9.9.0.8.8.8.8.8.8.8.=.8.$.=.=.0.0.8.8.1.<.<.<.^ ^ ^ ^ ~ ~ ~ Q ",
"8.8.9.9.9.0.h.h.>.8.8.8.8.8.9.8.z.z.m.m.m.m.m.m.9.0.0.0.0.0.0.0.0.0.9.0.0.8.0.8.8.0.8.8.8.8.8.=.0.8.9.9.1.<.<.<.$.^ ^ ^ ~ ~ ~ Q ",
"9.9.9.h.9.0.k.h.8.8.8.8.8.0.9.9.m.V.m.m.V.V.A.m.0.0.k.0.k.0.0.0.0.0.0.0.0.8.0.8.8.8.8.8.8.$.8.$.9.0.9.0.9.<.<.<.^ ^ ^ ^ ~ ~ Q Q ",
"h.9.9.h.k.k.h.k.8.8.8.8.8.8.0.0.m.m.A.A.A.m.V.D.k.k.k.k.0.k.b.0.0.0.0.0.0.0.0.0.8.0.8.8.8.8.8.8.Z.h.0.9.9.9.1.<.$.$.^ ^ ~ ~ ~ ~ ",
"9.9.h.h.j.k.k.k.8.8.0.0.0.0.0.0.A.A.A.A.D.A.A.Z.j.k.k.b.k.k.0.k.k.0.k.k.0.0.0.0.0.0.8.8.8.8.8.8.9.9.h.0.9.9.1.9.$.$.$.^ ^ ^ ~ ~ ",
"9.h.h.j.h.k.k.k.0.8.0.0.0.0.0.0.A.D.D.A.D.A.I.Z.k.k.b.k.b.b.b.b.k.k.k.k.k.k.0.0.0.0.0.0.0.8.8.8.9.Z.h.9.h.9.9.9.^ $.^ ^ ^ ^ ^ ~ ",
"h.h.h.j.k.k.n.z.0.0.0.0.0.0.Z.0.A.D.A.D.D.I.P.P.b.b.b.b.b.b.b.b.k.k.k.k.k.k.k.k.0.0.0.0.8.0.8.8.h.h.h.k.h.9.9.9.$.$.$.$.$.^ ^ ~ ",
"h.h.k.k.k.z.n.m.8.0.0.0.b.0.Z.0.D.D.D.D.F.F.I.P.b.m.m.m.m.b.b.b.b.b.k.k.k.k.k.k.b.0.0.0.0.8.8.0.Z.0.k.h.h.h.9.0.=.$.$.$.^ ^ ^ ~ ",
"j.l.k.k.k.m.z.m.0.0.0.0.0.A.0.b.b.b.b.b.b.A.A.b.b.Z.A.Z.Z.Z.Z.Z.b.b.b.b.b.b.b.k.0.k.0.0.0.0.0.8.z.j.k.k.k.h.h.9.=.$.$.$.^ ^ ^ ^ ",
"k.j.k.k.z.k.m.m.0.0.0.Z.A.0.0.b.b.b.b.A.A.b.b.Z.A.Z.A.A.A.A.A.Z.A.Z.Z.b.b.b.b.k.b.b.k.0.0.0.0.8.z.k.k.k.k.h.h.h.=.=.$.$.$.$.$.^ ",
"j.k.k.z.z.m.m.m.0.Z.0.0.0.b.A.A.b.Z.Z.Z.A.A.A.Z.A.A.Z.A.A.A.Z.Z.A.b.A.Z.b.b.b.b.k.k.b.k.0.0.0.0.z.n.z.k.h.k.0.0.=.=.$.$.^ $.$.^ ",
"k.z.z.z.m.m.N.m.b.0.0.Z.b.b.b.A.Z.Z.Z.Z.A.A.A.P.A.P.A.P.A.A.A.A.P.Z.A.A.A.Z.Z.b.b.b.0.b.b.0.0.0.m.m.z.k.k.h.k.0.8.$.=.$.$.$.$.^ ",
"k.k.n.m.m.m.A.A.b.0.0.b.A.b.A.A.Z.A.A.Z.A.Z.D.D.P.A.D.D.A.F.A.D.A.A.Z.Z.Z.Z.Z.b.b.b.b.k.b.0.0.0.n.m.z.z.k.k.k.k.=.=.=.=.$.$.$.^ ",
"z.z.z.m.m.m.N.N.0.b.A.0.b.A.Z.A.A.A.A.U.D.U.D.D.D.I.D.I.F.A.F.D.I.A.D.D.A.A.A.Z.A.b.b.b.0.b.b.0.m.m.m.n.b.z.k.0.8.=.=.$.=.$.^ $.",
"z.n.m.m.Z.A.A.A.A.b.b.A.b.Z.A.A.A.D.D.A.D.U.D.F.F.F.I.I.F.F.I.D.A.A.D.D.A.Z.A.Z.A.b.b.b.b.0.b.0.m.m.m.z.k.0.Z.0.=.=.=.=.$.$.$.$.",
"n.z.m.m.Z.A.P.A.b.b.b.Z.A.A.A.A.A.A.U.D.A.U.F.F.F.F.U.D.F.F.F.F.I.I.D.D.P.A.A.A.A.b.A.b.b.b.b.0.m.m.m.m.b.b.b.0.8.=.=.=.=.$.$.$.",
"m.m.m.V.C.D.D.D.b.b.Z.Z.m.N.A.D.F.D.D.F.F.F.F.F.U.U.U.U.U.I.I.F.F.D.D.D.D.D.D.A.A.b.Z.m.Z.0.k.v.V.m.V.m.z.k.k.k.>.4.=.$.=.=.$.$.",
"z.m.m.A.V.D.D.D.m.m.Z.Z.A.A.F.D.D.I.D.F.U.U.U.U.U.U.U.U.U.U.U.U.U.F.U.F.F.F.D.A.A.A.A.b.b.Z.0.k.C.V.V.m.m.z.k.z.8.=.4.=.=.$.$.$.",
"m.m.V.V.C.D.C.D.m.m.A.A.A.A.P.D.F.F.F.F.U.U.U.U.U.E.U.R.U.U.U.U.U.U.F.F.D.D.D.A.P.Z.Z.m.Z.b.k.k.D.V.m.m.m.k.k.k.8.8.=.=.=.$.$.$.",
"z.m.m.C.C.D.D.F.m.m.A.A.A.P.D.D.F.I.U.U.U.U.U.U.U.E.R.R.U.R.R.U.U.U.U.F.F.I.I.D.A.A.m.Z.Z.b.b.v.C.C.C.m.Z.n.z.z.8.=.4.=.=.=.$.$.",
"m.V.V.C.D.D.F.F.Z.Z.m.A.D.D.D.I.D.U.U.U.U.U.E.R.R.E.E.R.R.R.U.R.U.U.U.U.I.F.D.D.P.A.A.A.m.m.b.b.C.C.N.m.m.m.m.k.8.=.8.=.=.=.$.$.",
"m.V.D.C.D.D.F.F.A.A.A.A.D.D.D.I.U.U.U.U.R.R.R.E.E.E.E.E.E.E.R.R.U.U.U.U.I.P.D.D.A.A.A.Z.m.m.b.b.D.C.N.m.m.n.n.k.8.8.4.=.=.=.=.$.",
"V.m.V.D.D.C.F.F.m.n.n.N.A.A.C.C.D.D.D.U.U.U.U.U.U.R.R.U.R.R.U.U.U.I.D.D.P.A.A.N.N.N.m.b.b.b.k.v.V.B.m.n.z.l.j.v.8.4.4.=.=.=.=.$.",
"m.V.C.C.D.F.T.C.v.6.3.3.3.4.6.6.8.0.0.0.0.0.k.b.0.Z.k.z.k.k.k.0.0.0.0.0.7.7.7.4.3.3.3.*. .*. . .2.2.X.2.....| | { $.4.4.=.=.=.$.",
"k.0.k.k.b.b.m.M., 2 : : 2 2 2 3 2 2 , 3 1 3 3 3 3 4 4 4 3 3 3 3 , 3 < 2 2 2 2 2 < : : - - : - - - * * - * - * & B { 4.4.=.=.$.$.",
"0.k.b.b.b.b.m.0.* * - * - - - - : : : : : < < 1 1 : 1 1 1 : : < : : : < : : - - - - - - - * - = * * & $ & # O . k [ =.=.=.=.=.=.",
"0.0.0.b.0.Z.Z.v.$ - - - - : - : : : : : : < < < < 1 1 1 1 1 < < : : : : - : - - - - - - - * & & * & & & # & . . 9 R 3.4.=.=.$.=.",
"0.0.b.b.b.b.m.v.$ - - - - - : - - : : : < < : < < : 1 1 : 1 < < < : : : : : : - : % - - * - = * * & & & # @ . & 9 R =.8.4.=.=.$.",
"0.b.0.Z.0.Z.m.0.$ * - - - - : : : : : : < < < < < 1 1 1 1 < < : < : : : : : - - - - - % = - & & & & & & # @ & @ 9 R =.4.4.=.$.$.",
"0.0.Z.0.0.b.N.0.$ * - - - : - - : : : : : < : < < 1 1 < < < : < < : : : - : : - - - % - - - & & * & & & & @ @ @ 9 [ =.4.=.=.=.$.",
"0.0.b.b.Z.b.A.0.$ * - - - - : : : - : ; : : < < : < < < < < < < : : : : - : - - - - - - = - = * & & & & & & O O 9 [ =.4.=.=.=.$.",
"0.b.0.b.0.A.b.b.- - - - - - - : - ; ; - ; ; ; ; < < < 1 < < < < < : : : : : : - - = = = = = = & * & & & & & O X B { =.4.=.=.=.=.",
"V.V.V.C.C.F.T.C.K.Q.W.W.W.Q.Q.Q.w.w.r.r.e.r.r.f f.,.6.6.6.6.6.3.:.:.:.:.*. . .] s f f f f d d g L.K.L.K.K.K.K.H. .6.h.9.9.9.6.1.",
"m.V.V.D.F.C.C.F.!.)._._._._._._.p.s.s.d.d.s.d.s.F.U.U.U.I.U.I.U.F.F.D.D.D.D.m.g.q.a.a.y.y.y.t.u.)._._._.(._.(.!.h.h.j.9.h.9.9.1.",
"m.V.V.C.C.C.F.F.~.'.'.'.'.'.'.`.s.d.d.d.d.d.d.s.E.E.E.E.E.R.R.R.R.R.U.U.F.F.D.B.e.s.s.a.a.a.i.u.'.'.'.'.'.'.'.^.k.h.j.0.h.9.8.1.",
"m.m.C.C.C.F.F.C.!.'.'.'.'.'.'.'.s.d.d.d.d.d.d.a.E.T.E.E.R.R.R.R.R.U.U.F.F.I.D.B.e.a.a.p.a.a.y.u.'.'.'.'.'.'.'.^.b.j.k.0.h.9.1.1.",
"m.m.m.C.C.D.F.F.!.'.'.'.'.'.'.'.s.d.d.d.d.d.d.a.E.T.E.E.R.R.U.U.I.U.U.D.I.F.D.x.e.p.p.a.i.i.p.u.'.'.'.'.'.'.`.^.k.h.h.h.9.9.1.1.",
"z.V.m.V.V.D.C.D.!.`.'.'.'.'.'.'.p.s.s.s.d.d.d.a.T.T.U.T.T.U.U.U.F.I.I.I.F.D.D.x.q.i.a.i.p.i.i.u.'.'.'.'.'.'.`.^.k.k.0.h.9.9.1.1.",
"n.V.m.V.C.C.D.D.K././././././.^.r.r.t.t.t.t.t.e.T.I.F.D.F.D.F.D.D.A.D.N.S.m.Z.f.d e.e.e.w.w.w.g ^.^.^.^.^.^.~.K.h.k.h.9.9.9.1.1.",
"n.m.m.m.V.D.V.D.Z F G.G.G.G.G.g.p i i i p p p a C.n.k.k.k.f.j.l.h.0.f.h.6.f.6.5.y y y y y y u u F F D S S A Z C h.0.9.9.9.1.<.<.",
"E T ( ( ( ( ) ) h.Z.l.Z.Z.z.z.S.Y.Y.Y.Y.Y.E.Y.P.+.@.;.;.;.;.;.;.;.;.;.&.+.+.O.) f.l.S.F.S.S.S.S.h.h.9.1.,.,.>.>.K K J M J b b b ",
"T T P ( ( ( ( ) h.Z.Z.h.z.z.S.S.P.Y.Y.Y.Y.Y.Y.J.' ;.;.;.;.;.;.+.;.O.+.+.O.O.' ( X.l.V.S.S.z.S.z.9.h.1.9.<.,.>.>.J J J J m m b b ",
"T P E P P ( ( ( h.l.h.Z.z.z.z.l.P.P.P.Y.Y.Y.P.M.) +.+.+.;.+.+.+.+.+.O.O.O.O.' E ( f.V.S.S.S.S.S.h.1.1.1.<.>.>.>.J J J J M m b b ",
"P T E E ( ( ( ( h.h.l.l.h.S.z.S.P.P.P.P.P.Y.P.M.( +.+.+.;.+.+.+.O.O.O.O.O.' ' T / f.l.S.S.S.z.z.9.1.1.1.>.>.;.>.J K J M b b b b ",
"P P ( P P ( ( ) h.h.j.h.k.k.z.z.J.J.P.P.P.Y.J.c.( +.O.+.+.O.O.O.+.O.' O.O.` ` P / :.l.S.S.S.S.z.9.9.1.1.>.>.>.>.J J J J M m b v ",
"P P P ( ( P ( P h.h.h.l.k.k.z.z.N.J.P.J.P.P.J.c.( O.+.O.O.O.O.O.O.O.O.O.' ` ` P V f.l.z.S.z.z.z.1.1.<.<.>.>.&.&.J J m b b b b v ",
"P P P P P ( P ) h.h.h.h.l.j.k.k.J.J.J.J.J.J.J.c.( O.` O.O.` O.O.' ' ' ' ` ` ) L V f.h.z.S.S.l.z.1.<.<.<.>.&.&.&.J J M m m b b v ",
"P P P P P P ( P 1.h.h.h.h.h.h.0.J.N.J.N.J.J.J.c.( ` O.O.O.O.' O.' ' ` ` ) ) ) L V X.l.l.l.z.l.h.<.,.<.;.>.>.&.%.J b b m b b v j ",
"K K K K P P ( ( <.h.h.h.h.h.h.Z.q c G H H H H w ) ` ' ' ' ` ` ` ` ` ) ` ) ` ) J > q t t c t t 0 1.>.>.>.=.&.&.&.J M m v b v v j ",
"K K K K P P P P 1.1.1.h.h.h.h.<.0 c c H H H c q ( ` ` ` ` ` ` ) ) ) ) ) ) ( ( N > w t t t t t 0 >.>.>.>.&.=.&.&.M b m m b v v v ",
"J J K K P P P P <.1.h.h.h.h.h.h.q c c c H H c q ( ) ) ` ) ) ) ) ) ) ) ( ( ( ( M > q t t t t t 8 ,.=.&.&.;.*.%.&.b m b v b v j x ",
"J J K K P P P P <.<.<.1.<.1.h.<.8 c c c c c c q ( ( ) ) ) ) ( ) ( ( ( ( ( ( ( M > 0 e t t t r 7 >.;.>.&.&.-.%.%.m b v b x v x j ",
"J J J J J J K P ,.<.1.1.1.1.h.h.7 c c c c c c q / ( ( ( ( ( ( ) ( ( ( T E E E m > 8 r t t t e 7 =.&.=.&.&.%.%.%.b b b b x x x j ",
"H J J J J K K K ;.>.<.<.1.1.<.<.6 c c t t x c 8 / ( ( ( ( ( E ( ( ( ( ( E E E n > 7 w r e e e 7 =.=.;.%.%.%.#.#.c b v x x x x j ",
"J b J J J J K K >.>.<.;.<.<.<.1.5 8 q q q q 8 6 L ( ( ( ( ( ( E E ( P T E T U z O 5 7 8 8 7 7 , &.&.&.%.%.%.o.#.v v b x j j j j ",
"v J J J J J J J &.>.<.<.<.<.<.1.X + + + + + O o L E P E ( P P ( P P ( P T E P z   X O O o O o o &.&.%.%.%.o.o.o.b v x j x j j j ",
"b b b J J J J J &.>.>.>.>.>.>.>.>.>.>.,.,.,.>.} K P E T T T T T ( P E P P P P b l Y } :.%.%.&.&.@.$.#.@.o.o.o.o.v x x x j j j j ",
"b b b m b m J J &.&.&.*.;.>.;.>.;.>.,.>.,.>.>.} J T P E T T T T P P P P P P P v l R #.&.;.&.&.&.$.@.#.#.o.o.o.~ v j j j j j h e ",
"b b b m b J J b &.&.;.=.&.=.>.>.>.>.>.<.>.>.>.} M T P P P P T L P L P P K P P x l Y } &.&.&.%.%.#.o.O.#.o.o.o.~ x x j j h h e h ",
"b v b b b v m J %.%.&.=.=.=.&.=.>.&.>.>.;.>.*.` m L P P P P K K L L L P K J K v l U ` %.%.%.%.#.#.#.o.o.o.o.~ ) j x j j h h e e ",
"x v b b b b m b #.%.%.&.%.&.=.&.>.&.>.>.&.>.&.[ m K J P K L K K K K K J J J J v k I { %.$.#.#.O.o.o.o.o.o.~ W W h h h h h h e e ",
"v x x b b b b b o.%.%.%.%.;.&.&.&.&.&.&.=.*.&._ m K K J K L J K K J J I J J J j k I ! #.o.@.#.o.o.o.o.o.~ W ~ W h h h h e e w e ",
"x v v v v b v b o.%.O.#.%.%.&.&.&.&.&.&.&.&.*._ N J J J J J J J J J J J J J N j k I ! @.#.#.o.o.o.o.o.~ ~ ~ W E h h h h h 0 h h ",
"j j x x v v v b o.%.%.#.o.o.%.%.O.&.%.&.&.&.%._ N J N J J N N I N M N N N N n n z U ` o.o.o.o.W o.~ ~ W W W W ( h h 0 h h h h w "
};
