/* XPM */
static char *_842_d1fd217e17a250f23f540177e01209099ce9648f080369750be1b4af63744b87[] = {
/* columns rows colors chars-per-pixel */
"64 64 101 2 ",
"   c #514F51",
".  c #555255",
"X  c #575558",
"o  c #595659",
"O  c #5D5A5D",
"+  c #5F5D60",
"@  c #615E61",
"#  c #646265",
"$  c #686567",
"%  c #676568",
"&  c #696669",
"*  c #6D6A6D",
"=  c #706F6E",
"-  c #6F6D70",
";  c #716E71",
":  c #757275",
">  c #767579",
",  c #797679",
"<  c #73797C",
"1  c #7D7A7D",
"2  c #807D7F",
"3  c #767C80",
"4  c #7F7D80",
"5  c #817E81",
"6  c #7D8285",
"7  c #7F888A",
"8  c #67ADD4",
"9  c #68ADD4",
"0  c #67B1D7",
"q  c #67B0D8",
"w  c #6AB3DB",
"e  c #6CB7E1",
"r  c #6EBAE4",
"t  c #6EBDE9",
"y  c #72BDE6",
"u  c #72BEEA",
"i  c #77BFF0",
"p  c #53CBD6",
"a  c #55CDD9",
"s  c #55D1DC",
"d  c #56D6E1",
"f  c #59D6E1",
"g  c #5BDAE5",
"h  c #5BDDEA",
"j  c #74C2ED",
"k  c #78C4EF",
"l  c #76C6F2",
"z  c #7AC7F6",
"x  c #7ACAF5",
"c  c #77CAF9",
"v  c #7ACCFA",
"b  c #7DD0FC",
"n  c #5CE1ED",
"m  c #5DE5F1",
"M  c #5EEAF6",
"N  c #5FEAF8",
"B  c #61E5EF",
"V  c #61E6F2",
"C  c #68E6F1",
"Z  c #63EAF5",
"A  c #69EBF6",
"S  c #62ECF9",
"D  c #6CEEF9",
"F  c #848284",
"G  c #878588",
"H  c #898689",
"J  c #8D8A8D",
"K  c #908C8F",
"L  c #8F8D90",
"P  c #918E91",
"I  c #8B9194",
"U  c #949194",
"Y  c #969598",
"T  c #989699",
"R  c #AEC9DB",
"E  c #B1C7DA",
"W  c #B2CBDE",
"Q  c #80CCF7",
"!  c #80CDF9",
"~  c #80D0FF",
"^  c #B5CDE2",
"/  c #B6D1E5",
"(  c #BAD3E6",
")  c #B5D2E8",
"_  c #BAD4E9",
"`  c #BFD9EC",
"'  c #BEDBF3",
"]  c #C1D9EB",
"[  c #C4DFF2",
"{  c #C5E2F5",
"}  c #C9E4F6",
"|  c #C6E4F9",
" . c #CAE6FA",
".. c #C7E9FB",
"X. c #CBE9FC",
"o. c gray90",
"O. c #EDEEEE",
"+. c #ECF4F5",
"@. c #F5F5F5",
"#. c #F5FBFB",
"$. c #FBFCFC",
/* pixels */
"X o o O . . . X o o o O O O O O + # O O * * * * , , 1 , 1 1 , , @ O o o , , 1 1 * * * * @ @ @ @ + O O O o o o o o X .   O o o X ",
"o o O # . X X o o O O O + @ @ O O @ # + * * * * 1 1 5 1 , 1 1 5 O O O o 2 1 , 5 - * * ; # @ @ @ + + + + O O + o o . X . O O o o ",
"o O O # . X o o O O + O @ @ # @ # # # O = * ; * 1 1 1 1 2 2 5 5 @ O O O 1 2 2 5 ; = * ; @ # # @ @ @ @ @ O + O O o o o X @ o o O ",
"O O + + . . o o o o O O O O @ @ O # @ # = * * * 5 5 5 5 5 5 5 5 O O o o 5 5 5 F * * * = @ @ @ @ @ $ # @ O + o o o X X   @ @ @ O ",
"O O O @ # # # # : : , , , , , 2 1 1 4 5 5 1 F 4 5 F F 5 5 F 5 G = & * & 5 5 5 5 5 F 5 1 1 2 1 5 o o o   * $ * $ $ @ $ @ X .     ",
"+ + @ # @ # # @ : : , , , 1 , 2 1 1 1 F F 4 F F 5 F 5 F F G G F ; * * $ 5 5 5 5 5 5 5 F 5 1 1 2 o O o   & & $ & & $ # $ X X X . ",
"+ @ # # # % % # , , 1 , , , 2 2 F 1 5 5 F F F F F H H H H F G F ; ; * & G G G G F F 5 F F 5 2 5 o O o . - & & & & & $ @ o o o . ",
"+ @ @ # & & % & 1 , 1 1 5 2 5 5 1 F 1 F F G G G F H H H H J H J ; * = # G H H H G H G G F 5 5 F + o O . - * * & & & $ $ X X X   ",
"@ @ @ $   . .   @ # @ $ # $ $ $ e r r r & * * * ; * * * : * = * G H H K - * * & , , > = : : : = W E E E q 9 8 9 & & & # # # # @ ",
"@ $ $ $   X o X # # $ $ % & & & r r y t & : - - ; * ; * * ; : * G H H K : * : & 1 , , , > , : > _ ^ E / 0 9 9 9 * & * & & # # @ ",
"$ @ & * . X X X $ $ $ $ & & & * y r y j : ; ; * ; : : ; : : : * H J H P : ; > * 1 , , 1 : : > , ) / ^ W q w q 9 * * & & # # # # ",
"$ $ $ =     o o # @ # # $ % & $ j t j l ; : : > : * * * = : : > H K H P : ; ; & F 2 1 1 1 2 , , ) ( / / r w q q - * * * & # # # ",
"$ $ & % , 2 , 5 ; : ; : > > : , , , 1 1 @ # # % 1 F 5 F { { { | A V M B 6 5 4 F : = * * * * * - * * * & & $ $ $ # @ @ O * & & # ",
"@ & & % , , 1 5 = : : : > > , , , , , 1 # $ % % 1 1 1 G {  . .X.A S N V F 2 1 F : ; : ; : : ; ; * * * * * & & # # # # + * & & # ",
"$ & * & , 1 4 F ; ; : : , : , 1 1 1 1 F # & & % F 1 F F {  .X.X.C N N Z 6 1 4 F > : : : : ; - * * = * & * & & & $ & # O * & & # ",
"% & - % 5 1 4 5 ; ; : : , , 1 1 1 1 2 2 % $ % # F F F G {  ...X.D N N S F 4 F G : : : * * = : * = * = & * & & # % # # O * * * * ",
"& & & & 4 4 1 5 G H H H = * - - - - ; : , , , , : : ; : : : = : : : : : : = : * Y U K U U K K K J H J H H H G 5 5 5 5 5     X   ",
"& - - & 5 4 5 5 5 5 H H * ; ; ; ; ; : : : : , : : : : : : : : : : : : : , > > * K U K U K K K K J H H H 5 G 5 5 H 5 2 5 o o o   ",
"& & - & 5 5 5 F 5 G G G * ; ; ; : : : : : , ; : : , : , : : : : , : : > : : > : U K U K P I P K P J H H G G G 5 5 5 5 5 X O o . ",
"; - ; - 5 5 5 G H 5 H P = - ; ; : : ; , : , : , , : : : : , , : : , : : , > , * U I K K K U K P J P K H H 5 H 5 H 5 5 5 X X o   ",
"+ @ @ # # $ & $ : , , , 2 5 5 5 5 5 5 5 $.$.$.$.X.X.X.} , , : : F 5 5 H & % & # $.$.$.$.X.X. . .= * ; ; & * * * O O O . ; ; ; * ",
"# # & $ & $ * & , , , 1 , 2 2 5 5 5 5 5 $.$.$.$.}  .X.{ , > : ; 2 2 5 5 * & * & $.$.$.$. .X. . .; : : ; ; = = ; @ O @ O ; ; * * ",
"@ $ % % & & * & , , 1 , 2 5 5 5 5 5 5 5 $.$.$.$.} X. .{ 4 > > > 2 2 5 F * & & $ $.$.$.$. . .X. .: : : ; ; = ; ; @ @ @ o ; ; ; * ",
"+ # @ $ & & & & , 4 , 5 , 5 5 2 5 5 F 5 $.$.$.$. . . .{ 4 > > - 5 2 2 F & # & % $.$.$.$. .{  .X.: : ; : ; ; ; - @ @ O . ; ; ; ; ",
"1 1 5 4 5 G G H , , 1 2 @.$.$.$. .X. .X.z Q Q ! v ! z v A C C C H F F 1 F F F 4 ! ! ! z Z Z Z Z J P P J J P H G G G 5 G @ O o . ",
"1 , 4 5 F 5 G H , 2 1 1 @.$.$.$.[ X. .X.v c v v v v v v S N N m 6 5 F 4 1 1 F 1 v v v c M m N S P P P P P H K H H 5 5 5 O o O o ",
"1 5 4 4 5 H F J , , , 1 $.$.$.$.[ X. . .v v v v v v v v m N M V 7 F 5 5 F 1 4 4 v v v c N S N S J P P P H P H H H H 5 G O O O X ",
", 1 1 F 5 G G H , 1 5 1 @.$.@.@.[  .[ } l z v z v x x c V V V V 7 F F 1 F 2 6 4 z z z l m M Z n P U J P H G G G H G 5 G O O O o ",
"; ; ; : : , , , , 4 4 4 , 4 , , , 4 4 > > 3 > > > < > > < < < < : : : 1 * * * # 1 < < > 3 > < , , , , ; ; ; ; * 2 , : : ; ; ; * ",
"- ; ; : : > : , 1 1 4 5 > ; : : > > : ; : : : , : : : : : > : , : : : : & & & # , : > , > ; , : ; > ; > , ; ; * , , , : : ; ; ; ",
"- ; ; ; : , > > , , 4 4 ; ; , , , , ; , : : , ; : : : : : : > : ; : > > % * $ % , : > > > > : , , , : , ; ; ; * , : , : ; ; ; * ",
"* ; : : , , , , 4 4 4 F > > , ; ; ; ; , , ; ; > , ; : > : : ; : , : > 1 % % * % ; ; ; ; : ; ; , ; ; ; ; ; ; ; * , : : : ; ; * * ",
"* : : : R W W / r j j j * * & * J J J K : ; : ; 4 1 4 5 , 5 4 G o.O.O.O.] _ ] ] H J J L L J J J H J J J H H 5 G 5 5 5 5 5 5 , 2 ",
"- ; ; ; / ( ` ` k k l v # * & $ P P K P : : , ; 5 5 5 5 5 5 5 5 @.$.$.#.X. . .X.U L P L J P L P L P P J K P H H H H G 5 5 5 2 2 ",
"* ; ; : / ) _ ` j l x x $ & & * P P P P : : : : 5 5 F 5 5 5 5 G @.$.$.$. .X.X.X.U P J L P J U K U P P K J K P G H 5 G G 5 5 5 , ",
"- : : : ^ / / ` j k k x # $ $ # P U P U : : : : 5 5 5 5 G 5 G H +.#.#.#.X.....X.I I I I U Y U U U K U U J P H G P G 5 5 5 5 2 5 ",
"- ; : : * ; ; : = > : ; : , ; : 1 , : : , : : , , : ; , [ X.[ [ D A A S S Z Z S m V Z Z > : , : > , : : : : ; - H H H H ; ; ; ; ",
"* - ; : & & - - * = : : : : : , , : : : : : : ; : , : , [ [ X.X.A M S S S M S N S M N S : : : : : ; : > ; ; ; * H 5 G 5 ; ; - - ",
"- * ; : % * - * - - ; : : : > : , > : : , : , : > : , , [ X. .X.A N M M m M M S S S S N : : > : : : : , ; ; ; * J 5 5 G ; ; ; * ",
"- ; ; : % & & % & - * - > : : : > : : : ; ; ; ; ; ; ; > [ X.X.[ A S S S S M M Z S Z S A ; : ; ; = * ; ; * = ; $ P H G 5 ; ; ; * ",
"- * ; ; ; , , : H J P P : : ; : c v v v L U L U Y Y K K , , : , % & & & : : : - U J K J U P P U P P J Y 1 1 4 > : : ; : ; : ; * ",
"* ; ; ; ; > : ; H G H K ; : : > v v v b U P U L K K J K , : : : * & & # : > : ; U J K K P L P L P P K P : 1 1 1 , , : ; : * - * ",
"* ; * ; ; : , ; H H H K ; : : > v v v b U L J L P P K K : : , , * & & & , > : = U J U K U U P L P P P P 1 , 1 : : : ; : * - * * ",
"; ; : : ; : : : H K P U & * * ; b v v ~ Y T T T T Y Y Y - - - - # # @ # * * * % Y Y Y Y P H L J H H H H : ; : : ; - * * : : ; ; ",
"X X O X ; ; , : , , , , 1 1 5 5 : : : : 6 4 1 5 5 5 5 5 5 5 5 5 J I U J U L U U 2 1 1 F X. . .} V m m m H 5 H 5 5 5 5 5 O o o X ",
"o o o o ; : ; : : : , , 1 , 1 5 : : : : 5 F 1 2 5 5 5 5 5 5 5 5 J U J U U J P U 2 2 6 F |  . .} m V n n H K 5 H 5 2 2 5 o o o X ",
"X X o o ; ; : : : , : , 1 , 1 4 ; : : : 5 5 5 5 5 5 5 5 5 5 5 5 U P P U J U U Y 2 2 2 2  . .| ..m m n h H 5 H 5 5 5 2 1 o o o . ",
"  . . . : ; : : , , , 1 1 1 5 F ; ; : : F H 5 F 5 5 5 5 5 5 5 5 J P P K U J J U 2 F 2 6 X...{ } m m h h 5 H 5 5 5 5 5 5 . .     ",
"& & = = # # $ % & & * * * - - * ; : : : : ; : : , : : ; : : : , ' X.X.[ $.$.$.$.| ..X...x l z u u i u t g f d s & $ # @ - * & & ",
"& & $ * @ $ $ & & & * & & : * ; - : : : 3 : : 3 , : : , : : , 3 [ X.X.[ $.$.$.$.X. .| | l l j l l u t r f f f a # # # @ * * & & ",
"& $ & ; # # $ $ & & * * - & * - ; ; ; ; - : ; : : : : : , : : , [  . .[ $.$.$.$.| | { { c l u l u u t e f f a a & $ # @ & & & # ",
"$ $ $ * + @ @ @ $ % % & - % - - - - : : - - - - ; ; - : , : : 1 [ [ X.[ #.#.#.#.| | { { l l l u u u r e a a p a # # + O & # # @ ",
"@ $ % $ > , 1 5 # % & & ^ ^ ) ' d h h h 4 5 , 4 5 5 5 5 ; ; : , > : : 3 n m V h m m h h ; * * & , ; , ; ; ; ; & 1 1 , : , : : : ",
"@ $ $ # , , 1 , $ $ & % ^ ^ ) ) d g h g 4 , 1 4 , 4 5 : ; ; ; : : : : ; n m m h n n h h - * ; $ , ; ; ; , ; ; ; , 1 > , : : ; ; ",
"@ @ $ # > > , , @ % & $ W ^ ^ _ s g g g : : : 1 , 4 4 5 - ; ; : ; ; - : h h h n n g h h ; * = * ; : , ; ; ; ; & 1 : : : : : ; ; ",
"@ $ $ @ > , , 5 + + @ @ E ^ ^ ^ s f s s 4 , 4 1 5 , 4 , - ; ; - * - * - g h h h h h f g & $ @ # ; ; ; ; ; ; ; * 1 , , , : ; ; ; ",
"# + @ # $ $ $ & - - - ; @ & * & - & & * & @ & * * * * * * * * ; 3 > 1 2 : : 1 ; H G G 5 H 5 5 5 ; * - ; O # + @ O O O o # # @ @ ",
"+ + # # # # % $ % & * - @ $ # $ & & & & * - * * * * * * * * * * > > : 1 : 1 , : F F 5 5 G 5 2 5 ; : - ; @ # @ # @ O O o # @ @ O ",
"+ + + # # # # & % & * ; # # $ # & @ & & @ & - * * * * * * * * ; : 1 : : , : : - F 5 5 5 5 5 5 2 * * * - @ @ @ O @ O O o # @ @ @ ",
"O + @ # # % & $ & - - * + @ # # & & * & & @ @ & * @ * @ & & * @ : > : : : : : - F F 5 5 5 5 5 G : : * : + + @ O O O o X @ O @ O ",
"  . . . X o o O O O + @ @ @ @ $ o o o o 5 5 5 5 5 5 5 5 : : : , * : ; , * : ; : : = * ; % # + # @ # O O @ @ O O $ # # @ O + O O ",
"  . X X X o o O O O @ + @ + # @ X o o o 1 , 5 1 5 5 5 5 ; : : ; , : : * ; ; ; ; ; ; ; ; # # + # # O # + O O O O # # @ @ @ O O O ",
"  . . . X o o o o O O O O @ @ @ . o o X , , , 5 2 5 5 5 : ; * ; * : : : ; * ; ; * = * = @ # # @ + # O O O O O o @ + + O O O o O ",
"    . . X o o o o o o O O + @ @ . X o X 1 1 1 , , , 1 2 * ; * ; ; * ; * * * * - * * * * # + O # O O O O O o o o @ @ + O o O o o "
};
