/* XPM */
static char *_5691_588eb326802f8cde0ab1add0c3424292ed069a6d838221ed20c31eeb000d51e1[] = {
/* columns rows colors chars-per-pixel */
"64 64 248 2 ",
"   c #11100B",
".  c #1B1A15",
"X  c #1B1B17",
"o  c #221F15",
"O  c #24221C",
"+  c #2A261B",
"@  c #392B1A",
"#  c #2A2923",
"$  c #36332B",
"%  c #39342A",
"&  c #492F19",
"*  c #473A28",
"=  c #5B3B25",
"-  c #453F33",
";  c #554127",
":  c #4A4538",
">  c #574C37",
",  c #58513E",
"<  c #68482A",
"1  c #6F522F",
"2  c #655637",
"3  c #6B603F",
"4  c #524D41",
"5  c #525147",
"6  c #585347",
"7  c #655B48",
"8  c #635E54",
"9  c #766749",
"0  c #6D6550",
"q  c #746B57",
"w  c #7A776E",
"e  c #91591C",
"r  c #875B2B",
"t  c #925A25",
"y  c #865C33",
"u  c #8D6226",
"i  c #99632A",
"p  c #886439",
"a  c #996B38",
"s  c #9B733A",
"d  c #A56A2A",
"f  c #B57B2E",
"g  c #A77030",
"h  c #A37334",
"j  c #A87738",
"k  c #A47A3B",
"l  c #B27B32",
"z  c #B97F34",
"x  c #846B45",
"c  c #9D6F42",
"v  c #86734A",
"b  c #897957",
"n  c #927E57",
"m  c #A47D44",
"M  c #807769",
"N  c #B7812E",
"B  c #A9853C",
"V  c #B58334",
"C  c #BA8435",
"Z  c #B3843C",
"A  c #B88938",
"S  c #BB8C3B",
"D  c #B9913D",
"F  c #C38D39",
"G  c #C4933D",
"H  c #CA953D",
"J  c #D1AE39",
"K  c #928157",
"L  c #9A865A",
"P  c #A58547",
"I  c #AB8644",
"U  c #AC8A45",
"Y  c #AC8D49",
"T  c #B68A44",
"R  c #B58E44",
"E  c #AF9046",
"W  c #AE914C",
"Q  c #BC9443",
"!  c #B89647",
"~  c #B3924C",
"^  c #BB954A",
"/  c #BE994C",
"(  c #A48D59",
")  c #B68B51",
"_  c #AD9357",
"`  c #B29552",
"'  c #B89554",
"]  c #B49954",
"[  c #BC9B54",
"{  c #B59B5B",
"}  c #BB9D5A",
"|  c #BDA15D",
" . c #988A68",
".. c #968E78",
"X. c #999071",
"o. c #A99769",
"O. c #B59C64",
"+. c #A59978",
"@. c #B19F72",
"#. c #BDA464",
"$. c #BAA46B",
"%. c #BDA56B",
"&. c #BBA673",
"*. c #BDA974",
"=. c #BAA979",
"-. c #C39544",
";. c #C59647",
":. c #C39A45",
">. c #CB9B44",
",. c #C39C4C",
"<. c #CB9E4A",
"1. c #D29E45",
"2. c #C39E53",
"3. c #CB9F53",
"4. c #C29E5A",
"5. c #C4A449",
"6. c #CCA24D",
"7. c #D5A649",
"8. c #D3A44D",
"9. c #D7B445",
"0. c #D5B64D",
"q. c #C5A155",
"w. c #CBA455",
"e. c #CAAE56",
"r. c #C4A35B",
"t. c #CBA55A",
"y. c #CDA95D",
"u. c #D3A653",
"i. c #D5A955",
"p. c #D3AB5B",
"a. c #CEB35B",
"s. c #D6B955",
"d. c #D7B658",
"f. c #D3BA5C",
"g. c #C49D63",
"h. c #C3A563",
"j. c #C9A762",
"k. c #C4A965",
"l. c #CCAB63",
"z. c #C1A66A",
"x. c #C3AA6C",
"c. c #CBAD6B",
"v. c #D2AD63",
"b. c #D2AF6A",
"n. c #CCB16C",
"m. c #D3B065",
"M. c #D3BB63",
"N. c #DABA67",
"B. c #D2B26C",
"V. c #DBB46C",
"C. c #C3AC73",
"Z. c #C7AB76",
"A. c #CAAE73",
"S. c #C3AE7A",
"D. c #C6B076",
"F. c #CCB274",
"G. c #C5B17C",
"H. c #CBB47C",
"J. c #CEB97E",
"K. c #D3B573",
"L. c #DBB674",
"P. c #D6B976",
"I. c #DCB973",
"U. c #D2B67B",
"Y. c #D3BA7D",
"T. c #DCBC7B",
"R. c #E1BD6C",
"E. c #E1BB75",
"W. c #E2BE7B",
"Q. c #E0C05A",
"!. c #DCC267",
"~. c #DBC474",
"^. c #E3C766",
"/. c #E4CA6D",
"(. c #E5CC74",
"). c #E5C77A",
"_. c #EAD175",
"`. c #ECD47C",
"'. c #F0D77B",
"]. c #999686",
"[. c #A69E85",
"{. c #B7AB86",
"}. c #B4AC8E",
"|. c #AAA794",
" X c #BDB9A1",
".X c #C0AF81",
"XX c #C5B484",
"oX c #CAB583",
"OX c #CDB984",
"+X c #C5B689",
"@X c #C9B789",
"#X c #C7B98A",
"$X c #CCBB8C",
"%X c #D3BC84",
"&X c #DBBE82",
"*X c #D2BE8B",
"=X c #DBBE88",
"-X c #C6BB96",
";X c #CBBD93",
":X c #D1BF90",
">X c #D7C187",
",X c #DCC184",
"<X c #D4C18C",
"1X c #DBC48C",
"2X c #CEC193",
"3X c #CEC29B",
"4X c #D3C394",
"5X c #DBC592",
"6X c #DCC996",
"7X c #D2C59A",
"8X c #D8C798",
"9X c #D5C99C",
"0X c #DCCC9C",
"qX c #E3C282",
"wX c #E3C88A",
"eX c #EBD482",
"rX c #EEDA83",
"tX c #ECD488",
"yX c #F1DB83",
"uX c #E4C992",
"iX c #E2CB94",
"pX c #E2CD9A",
"aX c #E6D19E",
"sX c #E9D29D",
"dX c #CCC6A7",
"fX c #D0C7A2",
"gX c #D4CAA3",
"hX c #DACDA2",
"jX c #D4CCAA",
"kX c #DDD1A4",
"lX c #DDD2A9",
"zX c #D5D2B8",
"xX c #E2D3A4",
"cX c #E9D5A3",
"vX c #EBD9A7",
"bX c #E4D5AA",
"nX c #E5D9AD",
"mX c #E9DBAC",
"MX c #E2D7B2",
"NX c #E4DBB5",
"BX c #E9DEB4",
"VX c #E4DBB8",
"CX c #EAE2B3",
"ZX c #E6E2BA",
"AX c #EBE3BB",
"SX c #EBE5C4",
"DX c #EBE6C9",
"FX c #EDEAD0",
/* pixels */
"f.f.M.M.n.a.0.f.!.~.~.~.~.5.J 9.9.9.9.9.d.p.b.H.%X*X4XhXMXMXNXNXNXNXVXNXNXVXVXVXVXNXVXVXVXVXNXNXVXNXMXNXNXNXNXNXVXNXNXMXVXVXMXVX",
"f.M.M.a.!.M.f.f.!.~.!.~.!.J J 9.9.9.Q.R.V.8.G t.U.*X4XhXMXNXNXNXMXMXVXMXVXVXVXVXVXVXVXVXVXZXNXNXVXNXCXNXnXnXMXVXNXNXVXNXVXMXVXMX",
"f.M.M.a.!.M.f.f.!.!.M.f.!.J s.0.0.Q._.).E.u.S C l.*X4XhXMXNXVXMXVXVXVXNXVXVXNXVXVXBXVXVXVXVXVXNXVXmX<XY.P.U.cXVXNXMXVXMXNXNXNXVX",
"f.M.M.M.!.f.s.s.!.a.e.f.!.!./.^.^.'.eXeXW.u.F f T B.4XbXMXVXVXVXMXMXVXVXNXVXNXVXVXVXVXVXVXVXNXVXNX5Xh.^ ) j j.NXVXNXVXVXVXVXMXMX",
"f.f.f.f.f.s.0.s.s.0.9.M.~.(.(./.`.yXyXeXI.3.F z z -.&XbXMXMXVXVXVXMXVXVXNXNXVXNXVXVXVXVXVXNXMXMXpXK.~ ) B g h pXBXNXNXVXVXMXVXMX",
"s.f.s.0.0.0.0.s.s.0.s.~.~.(./._.yX'.'.).R.u.F N z F <.=XMXVXMXNXMXVXVXVXVXVXVXVXVXVXVXVXVXVXNXpXF.[ ` ` k i t ) bXNXNXVXVXVXVXVX",
"0.0.0.0.0.s.Q.!.!.^.~.eXeX_._.rXyXyX'.).m.8.F f f z F ;.=XbXMXNXNXNXVXVXVXVXNXVXVXVXVXVXNXBXiXU.r.Y ` _ Y k i g =XMXNXVXVXMXNXNX",
"s.f.f.!.!./.(.`._.`.rXtX`.'.yXyXyX'._.R.i.H H F F F H H 3.V.T.=X6XxXnXCXlXMXMXVXNXNXNXVXnXpXc.2.U Y ` m m c a i g.NXVXVXVXVXVXVX",
"/.(.`.`.`.rXrX`.rX`.`.eX`.`.yXrX'._.N.m.-.N 1.i.7.i.i.8.u.8.8.8.6.w.y.l.b.b.b.=X5XsXsXcX=Xg.^ I j ) m a c c s d ) pXVXVXVXVXVXVX",
"`.`.rXrXrXrX'.`._./.(.~.(.`.`.`.(._.v.p.>.8.i.i.N.i.u.u.u.u.1.7.7.7.8.7.8.8.<.1.<.3.3.3.3.;.I h k I c c y p a m m :XBXVXVXMXNXNX",
"rXrXrXrXrX`._.(./.(.).).(.!.M.f.d.M.p.p.N.V.V.m.p.i.6.<.6.H >.1.1.1.8.i.i.8.u.8.1.1.F f T -.h u j j a y y y y j g U.BXNXVXNXNXNX",
"rXrX`.`.(.(.^.Q.!.f.M.n.e./ 5.:.w.v.V.R.R.L.V.v.v.i.6.7.H H H >.>.<.u.i.w.i.p.i.<.;.F f l j t i B h y < < < y j g Z.MXNXBXVXNXNX",
"(.(.!.!.f.e.9.5.! ! Y ~ W E / y.V.E.E.E.E.P.K.m.u.3.>.>.H H >.>.<.,.2.t.t.t.t.u.<.;.<.G g t t s Z j s 1 = = y c g g.MXMXVXVXNXNX",
"f.e.| ! D D B B B I U E [ y.N.I.E.E.E.W.~.T.I.y.3.>.F H G >.<.u.,.2.^ 4.[ ^ ,.q.,.8.<.<.>.e t k B I c < * = y c g g.cXVXVXNXVXNX",
"E B D B B B P U Y W 4.b.L.E.W.W.E.L.T.&X=XY.m.t.;.F F H -.,.3.r.4.r.} j.j.4.q.2.3.w.,.<.;.-.g i s j x = & = x m m g.xXVXNXNXNXNX",
"B B B B P Y Y W ] r.L.).E.E.).E.E.L.,XqX&XP.l.,.S F -.>.;./ r.4.4.[ r.} } | 4.[ 4.q.2.w.<.t.-.h k c = & & < c T C g.cXBXNXNXMXNX",
"B B P E E W W W v.E.).W.qXqXE.E.L.qXwXuX&XK.t.-.S ;.,.2.^ } r.| } 4.t.r.r.q.2.2.r.t.3.q.q.t.t.;.k 1 & @ = 1 P R I b.MXBXVXVXNXNX",
"P B Y W Y W ] #.W.).qXqXqXW.E.E.E.qX=X=XqXb.2.S S :.r.h.O.z.z.x.j.h.h.r.y.q.3.2.2.2.q.w.q.q.t.6.;.r 1 & < a P R l A.mXNXVXVXVXNX",
"B P W W W ] | ~.W.qXW.qXqXW.E.L.U.%X&X=XY.l.,.S ;.[ h.x.A.G.&.$.z.} j.j.,.t.w.2.3.2.q.2.y.w.t.t.w.;.g r s m h s u g.bXNXBXNXNXNX",
"P Y W W ] { %.~.qXqXwXqXW.E.A.Z.Z.oX%X%XB.2.-.S Q ] c.U.Y.%XJ.x.z.} r.q.t.q.t.t.t.t.p.w.t.4.l.l.p.8.H C j Z D u a 4.uXNXNXNXVXNX",
"E W ] ] { #.~.1XuXsXsXsXT.( 9 b  .&.%XU.j.,.Z D R h.U.&XY.H.U.F.h.4.' 2.q.q.y.4.2.t.m.v.y.q.t.v.v.i.i.8.S V A Z m ;.&XbXNXNXBXNX",
"W { O.#.*.G.6X6XvXAXCXuXS.7 : + , o.K.j.r.,.Q ~ 4.b.OX$XOXH.U.c.l.w./ ) 2.q.3.2.r.t.l.m.y.q.h.l.l.m.m.i.8.C C g d z b.pXMXNXNXNX",
"*.=.{.#X2X7XiXxXSXFXAXaXX.7 : 6 , ( b.t.v.l.2.} j.A.@X@XS.S.H.c.r.4.[ B s E 4.t.r.r.m.V.n.m.l.l.m.n.n.N.i.H V g i d 3.&XbXBXNXMX",
"3X3XdXgXgX9XiXZXFXFXBXlX[.* * O * _ p.V.L.b.c.K.k.x.Z..X&.K 3 q K ` ^ :.I ! ' [ y.k.l.y.y.l.n.l.l.l.n.m.m.i.F l e d F V.pXMXNXNX",
"dXjXjXjXjX0XmXDXFXSXvX4XX.> * * n v.V.V.V.b.U.K.3.4.O.L 9 4 8 # o < P ! ` [ [ r.j.l.y.t.t.p.y.l.y.y.y.j.y.p.>.A t t F p.uXMXVXNX",
"jXjXjXjXjXkXAXDXDXAXiX>X&.9 2 L b.V.V.L.L.W.L.j.-.U p * : ].M # o + 1 P / | #.h.j.B.l.y.t.y.y.l.y.t.y.y.y.p.6.H f d C 8.=XbXNXNX",
"dXjXjXjXhXnXSXDXDXCXwXK.A.Z.A.I.V.V.E.W.&XW.E.v.Q s ; o M q o   X # < P q.#.h.x.c.B.n.m.l.l.h.l.j.y.v.y.y.y.6.7.z d N 1.E.MXNXNX",
"jXjXjXjXhXZXSXSXAXCX,XK.T.qX).I.L.W.qXqX&XL.b.v.2.Y 1 - 8 8 % # + , K D.A.D.J.J.H.H.F.F.U.U.U.x.n.c.l.y.n.n.w.6.F z F 1.L.bXNXVX",
"jXdXjXhXlXZXSXSXAXCXiX,XtX1X,XqX=X=X=X=XW.T.L.v.,.^ _ 2 , 7 : : q X.oXH.OX2X7X8X2X<X<XOXOXOX$XOX%XF.U.F.c.c.l.5.H G G ;.K.bXMXVX",
"fXfXfXjXCXZXZXSXSXZXnXvX6X2X#X2X%X&X=XwX=XT.T.l.j.2.r.&.@. .K o.H.F.F.J.<X7X9X8X7X4X<X#X$X4X4X*X%XoX*XOXOXU.c.w.5.:.H >.b.aXNXVX",
"3X2X3XjXCXZXMXZXZXVX|.].+. . ...{.@X*X=XuX&XU.b.B.j.c.C.x.#.z.k.k.l.F.OX7X9X9XhX9X2XXX#X2X7X<X<XOXOX*X;X$XOXD.t.w.>.>.:.l.0XNXVX",
" X{.#X9XNXCXnXNXVX8 : 5 5 8 8 5 q @.9X8X<X=XY.P.K.b.U.U.c.c.4.r.j.n.H.<X3X9XgXgXgX9X2X7X8X4X4X<X4X;X:X4X*X%XJ.F.b.5.>.<.w.iXMXVX",
";X#X;X9XnXhXZXDXzX# X X X X X O % ,  XdX9XpX1XU.K.H.U.=X1X&XK.oXOXOX#X$X9XgX9XjXkXhXhX9X9X9X4X4X2X2X2X2X*XOX%XU.B.y.6.6.y.1XMXNX",
"{.{.#XhXhXjXVXDXdX$ X O X     X + - |.jXhX0X5X=XU.Y.*X:X8X0X8XhX;X2X2X3X3XgX9X9XjX9X9X7X4X9X2X2X9X9X4X2X;X:X<XY.F.v.u.w.p.P.bXNX",
"*.#X7XZXZXNXVXzX|.5 # # X       . - ]. XdX7X4X<X&X%X:X:X7XgXgXgXfXgX3X3X3X3X3X2X2X9X2X2X2X<X2X9XhX9X4X8X8X*X%XOXU.m.w.w.m.m.aXNX",
"{.#X7XNXCXnXVXdX|.$ $ O X X X X # 5 |. X3X3X#X>XOX%X:X7XfXfXgXgXjXgX3X3X7X9X9X4X2X2X<X$X<X2X3X7X9X9X8X4X4X:X%XOXU.m.e.w.y.l.5XNX",
"#X{.0XkX7X7XdXdX|.8 # O # O X O 5 w |.].[.}.XX#XH.OX:XfX3X-XfXfX7XgXgX3X3X2X2X2X2XOX#X#X;X7X-X7X2X4X2X<X$X<X$XOXF.j.5.5.y.v.>XnX",
"XX+X4XlXMXlX3X}.].8 - # o # $ 4 6 ..|. X}.-X4XH.Z.H.;XgX3X-X-X-X-X7XgXgX2X3X2X$X$X$X<X2X2X;X8X:X2X<X2X#XXXoXJ.Z.c.2.:.t.w.y.Y.bX",
"G.{.9XmXnXlXgX}...8 6 $ # % % 4 q ..X.}.+.{.XX%.x.Z.@X;X-X-X;X;X;X;X;X$X2X#X$X$X@X#X@X2X4X2X:X$X<X<XXXOXG.Z.Z.x.h.:.Q w.t.p.K.aX",
"{.#X9XnXMXbX9X{.n q 6 4 4 6 4 - 8 ..X.[.{.&.S.C.x.C.XX@X+X+X@XoX$X$XXX{.XX#XOXG.#X@X$X;X$X;X*XOXG.*.G.G.D.C.C.x.j.^ Q ,.q.t.l.6X",
"J.#X7XbXnXkX7X;X{.7 + .   + 8 4 7 q +.X.@.@.$.%.h.{ O.@..XXX.XoXS.=.=.S.XXoXXXS.oX@X@X@X@XOX@XoXS.S.Z.Z.D.G.D.x.} Q Q ,.w.q.l.1X",
"=.#X0XnXbX0X9X8X-X2 - @ . o   . * q  .@.$.*.*.*.o. .o.@.*.G.S.@.Z.=.XX$X+XS.S.XX@X;X$X$XXXoXS.S.&.S.S.XX.XS.D.z.[ Q R / ,.,.v.Y.",
"+X#XhXbXxXkXbX0X-X ., - % % $ # + @ 0 K X.K 9 3 * < 9 &.&.S.S.S.S.S.XX@XXXXXS.@X$X$X$X@XH.S.S.G.oXoXoXoX%XG.z.} [ Q R ,.,.,.t.P.",
"kXhXkXnXbXbXkX8X:X=. .7 : * : * % % @ @ : ; + ; , v o.&.S.C.C.S.@X@X@X@XXX@X@X@X$X@XoXG.S.G.XXOX$X$X@XOXoXG.x.| / R Q ,.Q ,.r.K.",
"SXAXCXnXbXkXkXpX8X$X=.b 9 9 0 9 7 2 > > 3 9 3 p v ( *.S.H.F.D.Z.oX@XoXXX+XXXXX+X+X@XXXS.G.XX;X4X8X4X;X$XOXG.F.k./ Q ,.Q ^ ,.t.K.",
"ZXAXAXkXxXxXbXpX5X*X@X@.x v n n ( o.K K L P P _ O.%.S.H.S.C.&.&.Z.S.oXoX+XXX@XoX@XXXXX@X$X$X;X8X4X$X4X<XOXH.F.q.,.,.^ Q / ,.t.n.",
"AXZXZXvXxXbXkX6X1X*X*XOX&.L o.O.@.%._ O.| { $.#.C.D.G.Z.C.C.C.C.Z.C.XX.XXX;X@X@X.X@X@X@X;X$X2X$XOXOXoXOXJ.C.} Q Q D Q S :.:.q.b.",
"AXAXCXCXaXxX0X5X<X*X*X*XOXJ.D.G.D.D.*.%.*.D.*.D.C.C.&.%.x.Z.Z.&.C.=.S.XX@X@X@XOXOX@X@X@XOX@XOXOXOXoXOXD.x.j.q.^ Q Q Q S Q :.,.t.",
"CXCXCXCXaX0X6X1X<X5X<X<X%X%XU.H.F.A.C.$.%.C.%.C.%.$.$.x.%.z.C.*.oXXX.XoX@XXX@X@X+XXXXX+XoXoXoXoX@XJ.A.x.#.q./ / D D A A A D 5.t.",
"CXCXCXCXvXiX0X5X<X<X<X<XJ.Y.F.H.F.H.C.x.C.C.%.%.%.%.%.O.%.C.&.XX@X@XoXoXD.S.J.XXXX@X;X#XXXXXG.D.H.H.c.z.t./ / / Q G A V V ! 5.,.",
"mXCXCXCXsX1X5X1X<X1X>X%XOX~.F.U.H.F.F.%.C.D.O.%.x.%.C.%.%.&.oXXX@X*XOXXXS.D.D.XX+X$X;X7X2XOXOXH.D.k.r.q.:.Q A D 5.G A N V D :.2.",
"vXvXmXvXiX,X,X1X>X<X%X%XJ.U.F.F.H.H.A.x.%.x.C.$.&.C.z.x.#.D.#X@X@XS.XXH.XXXXXX@X;X;X;X$X@XG.D.S.%.h.r./ / Q D -.S C V V Z Q -.2.",
"xXvXvXcXiX~.T.>X>X>X%X>XJ.F.U.F.F.F.C.x.x.x.x.#.#.z.%.z.#.Z.G.J.oXG.XXOX+X#X@X#X+XOX$X:X#XG.D.C.#.r.q./ D S ;.F C l l l A :.Q w.",
"sXvXsXsXiX,XT.T.Y.%X>XJ.J.H.U.F.F.D.x.x.x.x.%.x.#.x.z.#.%.x.D.*.S.oXoX#X$X4X2X$X@XXXoXG.D.S.x.x.k.k.| 5.Q Q S l f l V A Q Q / w.",
"aXxXcXsXiX1X~.P.B.U.~.OXD.F.F.F.n.x.n.x.z.x.x.x.#.k.z.#.x.z.x.x.G.OX<X2X$X#X$X@X@XXXC.*.S.Z.D.%.k.y.q.! Q A V l g f V Q D / w.y.",
"pXaXsXsXiX1X>XP.K.n.n.Y.J.U.F.F.D.n.x.n.x.#.#.k.z.#.k.#.#.#.#.C.J.XXOX$X$X@XOXXXOXH.S.S.D.C.z.x.c.r.q./ :.S C l V C Q 5.5.q.l.B.",
"0XaXaXiXpX5X1X~.P.M.n.F.F.U.K.n.F.D.x.%.%.n.k.| #.#.%.#.#.| #.%.G.G.*.oXG.H.D.D.C.%.G.G.G.x.x.c.r.r.r.,.Q A V V V Q q.q.r.c.F.F.",
"iXaXaXaXiX1X1X>X~.U.K.b.n.k.F.n.n.n.n.n.k.#.x.#.| #.#.#.| #.#.$.x.%.#.%.D.*.*.*.D.*.G.D.D.F.D.n.l.q.q.Q D A A A ^ q.r.j.z.F.F.Y.",
"6XpXaXaXaX6X1X1X<X&XY.F.n.#.k.#.e.#.k.n.k.| #.e.k.| #.#.| #.| | #.#.{ { #.%.#.%.C.D.H.F.%.%.x.h.h.| w.5.Q Q ^ ^ [ j.x.F.F.F.H.Y.",
"6X6XpXaXaXpX6X6X<X%X%XU.F.n.| [ ] / | | | | ] ] | | ] | ] ] | { ] W ] #.%.D.D.D.OXU.%.$.%.F.c.k.r.r.q.[ q.r.j.F.H.F.H.%XOX>XU.>X",
"6X5XiXxXxXaX0X6X<X*XH.J.J.n.k.| [ ! ~ W W W Y Y E W W ] ] { { { #.$.$.$.*.*.*.D.D.D.D.C.F.H.x.k.h.h.| ] | F.F.H.J.OXOX%XOXJ.U.>X",
"5X6X6XsXmXkXkX0X5X<X<X%XU.n.n.x.| | | ~ ] ] W W W W ` _ { $.@.$.=.*.#X#X<X=.*.OXG.F.D.D.C.H.F.x.%.%.H.OXJ.%XoXOX@X2X$X$X>XH.F.Y.",
"5X5X5XsXmXvXkXpX8X5X*XOXJ.A.x.z.x.#.| | | ] { | | | $.{ $.*.*.G.<XJ.<XG.&.=.XXG.S.S.J.J.D.D.G.H.H.H.OX<X$X%X*X*X4X$X$X#XOXU.B.Y.",
"<X5X<X5XxXvXbX0X8X4X*XOXJ.F.D.x.%.#.| | | W ] { $.$.$.$.*.XX2XXX#X=.=.*.*.G.XX*.S.J.oXH.oXOXOX<X<X$X<X4X<X<X7X7X2X4X<X2X>XU.l.Y."
};
