/* XPM */
static char *_79_be2bfbb0d3d3d26801bd6cd2c8a407aedbd96894fa4dc815b0454a8341348eda[] = {
/* columns rows colors chars-per-pixel */
"64 64 243 2 ",
"   c #140E0A",
".  c #17110C",
"X  c #1B140E",
"o  c #1E1611",
"O  c #1F1812",
"+  c #24190C",
"@  c #331C02",
"#  c #201711",
"$  c #241B13",
"%  c #291E15",
"&  c #271E18",
"*  c #291F18",
"=  c #3C2303",
"-  c #3C250A",
";  c #2D2115",
":  c #272018",
">  c #2C221A",
",  c #332515",
"<  c #382815",
"1  c #3B2A16",
"2  c #32261A",
"3  c #35291C",
"4  c #3B2C1B",
"5  c #3E311E",
"6  c #2D2721",
"7  c #352B21",
"8  c #3A2E22",
"9  c #3D3123",
"0  c #3C3229",
"q  c #422605",
"w  c #442906",
"e  c #4B2C05",
"r  c #452B0B",
"t  c #4B2C0A",
"y  c #532D08",
"u  c #4D300C",
"i  c #53330B",
"p  c #583609",
"a  c #5A350B",
"s  c #462E12",
"d  c #412F1C",
"f  c #44321D",
"g  c #4B3418",
"h  c #563917",
"j  c #5C3B14",
"k  c #663B0E",
"l  c #633C0D",
"z  c #633E15",
"x  c #623E1A",
"c  c #433422",
"v  c #453727",
"b  c #4B3925",
"n  c #45392D",
"m  c #4C3D2B",
"M  c #543D24",
"N  c #453B31",
"B  c #4A3E32",
"V  c #5F411B",
"C  c #65410D",
"Z  c #6C4414",
"A  c #63431B",
"S  c #684518",
"D  c #6B441A",
"F  c #754816",
"G  c #734B1C",
"H  c #7B4D1B",
"J  c #7B521D",
"K  c #7F5A1F",
"L  c #574229",
"P  c #4D4235",
"I  c #4E443A",
"U  c #534433",
"Y  c #5B4934",
"T  c #53463A",
"R  c #55493C",
"E  c #5C4D3C",
"W  c #634423",
"Q  c #6B4A24",
"!  c #674A29",
"~  c #754E23",
"^  c #6C502D",
"/  c #7D5323",
"(  c #755329",
")  c #654E33",
"_  c #685239",
"`  c #785934",
"'  c #7D603A",
"]  c #584C41",
"[  c #5D5142",
"{  c #645543",
"}  c #6B5C49",
"|  c #715F50",
" . c #73624D",
".. c #776853",
"X. c #776856",
"o. c #7B6B55",
"O. c #824E1A",
"+. c #83541D",
"@. c #88571C",
"#. c #915D1F",
"$. c #835522",
"%. c #855A23",
"&. c #865827",
"*. c #8B5B24",
"=. c #935E25",
"-. c #815E35",
";. c #A25D20",
":. c #8D6129",
">. c #95632A",
",. c #9A6629",
"<. c #86643A",
"1. c #8A6539",
"2. c #976733",
"3. c #936C3C",
"4. c #99713D",
"5. c #A56929",
"6. c #AC6B2C",
"7. c #B26D2E",
"8. c #AA712D",
"9. c #B6752E",
"0. c #A46D34",
"q. c #A87638",
"w. c #B47433",
"e. c #B77737",
"r. c #B57A35",
"t. c #BB7C35",
"y. c #BC7D3A",
"u. c #C67E39",
"i. c #8B6C44",
"p. c #8F714F",
"a. c #947346",
"s. c #9B7343",
"d. c #84725D",
"f. c #8A765C",
"g. c #A77944",
"h. c #B27F41",
"j. c #867661",
"k. c #8C7A63",
"l. c #917E67",
"z. c #BC8338",
"x. c #BD823A",
"c. c #C3843C",
"v. c #C48A3C",
"b. c #C8893C",
"n. c #D78A3D",
"m. c #D3923B",
"M. c #E6903C",
"N. c #AB824B",
"B. c #BA8946",
"V. c #A88455",
"C. c #B58655",
"Z. c #95836A",
"A. c #96846A",
"S. c #9B8972",
"D. c #9F9075",
"F. c #A78C6F",
"G. c #B6946A",
"H. c #A5947B",
"J. c #B89973",
"K. c #C48C43",
"L. c #CA8D42",
"P. c #C58A48",
"I. c #D98B45",
"U. c #CC9343",
"Y. c #C39248",
"T. c #CB944B",
"R. c #CD994B",
"E. c #D39444",
"W. c #DB9345",
"Q. c #D59648",
"!. c #DB934A",
"~. c #D39B4D",
"^. c #DC9B4C",
"/. c #CE8F53",
"(. c #CB9754",
"). c #D69B54",
"_. c #E48A43",
"`. c #E49445",
"'. c #E39D45",
"]. c #E39C4C",
"[. c #E8984B",
"{. c #E69B52",
"}. c #D4A251",
"|. c #D7A458",
" X c #E6A34B",
".X c #E5A452",
"XX c #EBA453",
"oX c #E8A956",
"OX c #ECAB5A",
"+X c #F3AD56",
"@X c #F1A95B",
"#X c #EBB15D",
"$X c #D09C65",
"%X c #DAA765",
"&X c #CDA87C",
"*X c #ECAB6A",
"=X c #EBB467",
"-X c #F2B366",
";X c #EBB678",
":X c #F5BA75",
">X c #F4BC7B",
",X c #F5C27B",
"<X c #B2A291",
"1X c #D2B085",
"2X c #EABB8A",
"3X c #C9BAAA",
"4X c #ECC48C",
"5X c #F6C384",
"6X c #FBCB8D",
"7X c #EBC699",
"8X c #F4CB93",
"9X c #F8CC97",
"0X c #FDD39B",
"qX c #F9D499",
"wX c #DACAB9",
"eX c #EACAA7",
"rX c #F1CCA7",
"tX c #EED1AA",
"yX c #FDD6A2",
"uX c #FFDAA4",
"iX c #F6D3A8",
"pX c #F3D3AC",
"aX c #FEDCAB",
"sX c #E6CEB6",
"dX c #EDD3B6",
"fX c #F3D4B4",
"gX c #FCDBB3",
"hX c #F7D9BA",
"jX c #FDE1AD",
"kX c #DFCFC0",
"lX c #E6D6C6",
"zX c #F4DDC7",
"xX c #F4E1CE",
"cX c #FBE5CC",
"vX c #FFEACE",
"bX c #F6E5D3",
"nX c #F9E6D3",
"mX c #FEEBD3",
"MX c #F7E8D9",
"NX c #FAEBDB",
"BX c #FFF2DB",
"VX c #FCEEE0",
"CX c #FFFFFF",
/* pixels */
"# X o . o & . o * 6 & * # # . X o o X o X X X o X o X + o O X X O . # X X X o . . $ X # + . X X X X X X : ; O : . . X X .   . . ",
"* $ O O o $ o O * $ & 6 $ # # # + o + + + o o + o + $ + $ + X O O # $ . # + X $ + + # $ $ $ + + + X $ + O > : O X o . X o o X o ",
"$ $ X O o & o & * & & 7 ; % % ; ; ; ; ; ; ; ; ; ; ; ; : & $ # O O X # # % % ; , , % % , % % ; ; ; ; ; % $ : : O O o . . X X X o ",
"$ # O O o & $ $ > > 6 c , ; , , ; % ; : + ; ; ; ; , ; ; ; % $ $ X # $ , , , , , % % % % , ; ; ; + % ; + > > > $ o o     X X X X ",
"$ # o $ 6 N 0 6 $ : , 3 @ t t r 4.q.z.V.F.F.F.F.Q Q ( L f 4 2 > $ + % 4 _  .} } V.N.h.V.^ e V S q.q.z.<.; : % X 6 6 6 O . X X X ",
"$ o # # 0 I 0 7 + ; , 1 w y p l |.#X#X*X2X7XrX7Xs.4.3.` b 5 3 : o : % 5 ..j.f.A.;X>X>X;Xq.F F *.XX#X.Xx.3 ; % + & N 6 & X . . X ",
"$ # # $ 0 T B 8 ; 3 4 5 u C C l |.=X-X>XfXfXrXrXN.g.a.` c 5 3 > : + ; 4 o.A.A.A.,X:X,X4XN.F Z :.oX#XoXB.< 3 3 + 6 0 0 6 o . . O ",
"& & $ * 8 N B c 4 s L g G K @.+.*X5X>X6XhXzXtXtXs.4.3.' m v 7 3 % o : 4 o.S.A.H.-X,X,X4XB.,.#.0.~.~.~.N.- 1 < < 7 7 6 & o X . O ",
"> 6 > 7 $ % 3 4 j G +.H Y.E.m.R.eXsXsXlXNXBXMXMX@.J *.G U U P 0 $ $ % 3 ..Z.f.D.W. XoX=X^.L.U.v.=.#.*.=.y r q q > : X O & $ X o ",
"7 > > > ; 2 4 f Z H @.H c.b.c.z.2XeX7XsXmXMXMXzXF H H z U P n 8 : O : 4  .o.f.Z.M.'. X Xc.u.c.z.*.=.+.&.z y y q 3 > X $ & $ o O ",
"7 7 3 3 , 3 4 g G +.*.@.z.m.b.b.2XwXtXdXbXnXMXbX*.+.J Z U P n 9 $ X ; 4 o.Z.Z.Z.`.OX'.].L.b.y.x.,.=.O.&.y y a r 1 , % % > > O O ",
"6 7 7 c 4 4 5 g &.*.>.>.U.}.Y.m.7XtXsXdXbXnXMXMX,.>.:.S L U n 0 : $ : 9 f.Z.H.Z.].-XOXOXT.U.R.B.0.w.5.=.a k z y d d 1 1 4 > O & ",
"& * , , t t r S Y.~.}.R.R.z.v.z.dXVXVXdX~.}.~.b.Z F Z p c c 2 : % + ; 3 w p p p !..X#XOX(.B.x.(.CXCXCXCX8.=.%.%.~ G ^ j c ; X X ",
"$ > , 3 r e t J Q.E.v.m.R.m.v.z.dXVXVXsX}.E.E.R.l l C t f 5 3 ; % $ , < = e e e !.^.].].U.z.r.$XCXCXCXCX0.5.=.>.,.*.%.A c > + + ",
"* > , 3 r e p F E.c.m.}.v.c.v.v.dXVXbXeXR.U.~.~.l a p t b c 4 4 ; , 3 d = w e w E.I.`.].c.r.r.(.CXCXCXCX=.*.=.=.*.%.:.A c 2 $ O ",
"* , 3 3 - q u F c.9.b.m.9.9.9.z.sXMXbXeXc.b.E.z.e w w - b v 4 4 3 3 4 4 = = = = b.n.n.m.c.6.r.Y.CXCXCXCX@.*.$.H H H G V 9 , + O ",
"* > 4 2 g.$X%X{.XX.X X.Xm.E.E.^.-X=X:XP.$./ / S 5 5 f f g u i h ! ^ ^ ^ f 1 1 1 J 8.,.,.8.c.v./.hXgXcXgXdXdXdXdX%XE.).q.7 2 $ X ",
"2 % 4 < h.2X:X:XXXXXXXXX X`. X.XOX@X-XT.H G G x L 9 c c u C a S ` i.<.' 5 < 1 5 ( 8.#.%.t.b.U.R.pXhXgXiXBXmXmXBX>X{._.g.7 , $ # ",
"% > 4 , C.:X>X:X@X-X@XXX]. X^. X@X@X-XP.J J D h 9 f 9 3 u p p C <.i.' ' 9 5 1 5 S >./ K r.E.b.R.gXhXhXzXmXmXmXBX>XXXXXg.7 , % # ",
"2 * 4 2 J.9X9X2X@X@X@X@X!.~.^.^.).P.).g.! ^ ! ! L c L L G %.:.>.N.C.4.3.L P P L ( ' ( ( 0.q.5.Y.6X9X9XiXmXNXmXBX5X*X>XC.8 , % # ",
"2 * d , <XcXmXiX@X@X@X@XU.v.U.m.,.$.*.~ U U U E ^ ' ' ' N.Y.(.}. X+XM.Q.}  .....Y L P 5 j C F @.OXOX+X-XmXvXvXmXaXyX0XJ.4 , $ $ ",
"* % 4 ; <XzXbXrX[.+XXXXXv.v.z.v.=.$.$.Q b c b b ` s.4.3.r.z.B.L.M.M.M.m.Z.o.d.o.5 5 4 1 t h l F XXXX X XvXmXmXmXgXuX0XJ.7 , $ $ ",
"* % 3 , <XbXzXrX[.@XXX[.6.t.9.z.$.H D Q b f f b ! 1.3.2.5.t.x.u.M.'. XM.Z.Z.Z.d.5 1 1 5 r y i Z +X X X XvXvXvXvXuX0X0XJ.4 2 * $ ",
"% 2 3 ; <XxXxXrX[.XX@XOXz.t.z.z.~ x ~ W b b v v ` 3.4.3.B.c.x.~.+X+X+X+XD.D.S.o.f 5 5 f u r e C }.oX XXXcXcXcXcX9X9X9XJ.8 2 % $ ",
"* * 3 , o.S.j.l.I.I.U.L.p C y = 1 v b B | X.X.d.I.W. X'.pXfXfXfXsXsXlXlXBXBXMXlX/ G / A b f 4 s i k k k k.k.Z.Z.-.+.#.D v > % + ",
"% * 2 1 { o.j.p.b.c.K.u.w i p w d v b M X.l.<XS.^. X'.'.rXfXhXlXsXwXwXkXMXbXMXxX%.#.$.D g f 4 4 y k k a Z.k.A.k.-.$.%.G 9 ; $ O ",
"% * 2 d E X.d.g.u.e.e.9.= r y @ d v c B o.S.H.S. X'.'.'.rXfXhXdXwXwXwXwXbXxXbXxX*.O.F S g 1 4 d r a a a d.Z.Z.j.<.H *.A 5 > + o ",
"$ ; 2 2 ] } }  .,.=.5.=.@ @ @ @ d c d m  .o.k.H.'.'.'.m.rXtXdXtXwXwXkXlXMXMXMXbX@.@.F S b 3 f f @ q w w {  .} } Q h z h 5 ; o . ",
"% * > 2 b m B U { { [ _ d c d d r r u G B.B.r.B.jXtXtXtXfXtXtX7X=X%X%X|.(.|.|.|.(.(.(.C.A w = r L m v c Y P U U b m c 4 , % . . ",
"% * % % 8 c c n [ B B B 7 7 8 4 r z C 2.|.|.R.R.hXhXhXzXhXpXtX7X).Q.|.L.U.R.Y.x.K.~.|.|.:.j i w M b d v P n P P v v 9 2 : + o o ",
"* % & $ 2 8 7 n R B B N 2 2 7 3 t e a %.R.R.}.}.dXhXhXhXpXpX7X4X(.U.U.U.v.L.v.w.z.v.K.Y.G w w q v d 4 8 P 0 0 P 0 9 7 : : $ o $ ",
"> $ * $ * > > c B B B c * * 2 3 u j j &.C.}.}.(.7X7X7XrX7X8X4X2X%X=X|.).T.(.R.Y.b.c.v.x.F w a r c 8 2 2 0 7 7 0 7 3 2 $ o O X O ",
"; : : : $ $ : 2 3 > : % $ $ ; > ! ` ' V.7X8XqX7X=X|.=X=X%X%X%X%X7XiXqX8X8XqX8X4XoX X^.].>.G O.S d 3 * * * % $ $ & * : + o O O o ",
"; $ ; : + $ : : : $ * X $ % ; , ' 3.N.G.jXjXjXjXoX#X#XoXR.R.Y.%XqXjXgXgXjXjXjXjX,X=X=XOXq.#.H D 8 < ; $ & + $ X + % % % O O $ . ",
"; : 2 : : ; 6 3 , 2 ; ; ; ; , 3 ` N.N.G.jXjXqXuX.XoX.X`.}.x.c.(.7XaXjXjXjXuX0XjX@X-XOX{.8.D Z z c 4 , % : % ; ; % ; ; + $ # # O ",
"; O : ; , 5 5 5 4 3 1 4 1 3 1 4 V _ W p.7XtXqXqX.X.X.X].R.c.L.(.5XqX0X0XjXjX0X0X{.XX=X!.:.z h h b g f 3 4 5 4 3 3 4 4 3 2 $ # o ",
": $ ; ; U {  .) W ! ! L - = t = 5 5 5 n } f.Z.Z.jXjXuXqXY.z.K.K.'.[.XXXXbXcXbXMX9X6X9X1X} v f f h j h h { } | { ) ! ( M 8 * O X ",
"% $ ; ; { o.Z...1.3.<.` e i j t < , , v  .Z.S.S.jXuXaXuX}.Y.K.~.oXXXOX=XbXbXnXnX0X0X6X1X_ 4 , d z H G G o.d.k.j.i.<.3.! 4 * # $ ",
"$ $ ; ; _ Z.D.f.i.3.<.3.a j z t 1 , 3 P o.D.S.D.aXuXaXgXR.B.v.~.=XOXOX:XNXbXMXnXrX9X7X1X_ 3 , f D *.%.%.A.Z.k.S.V.a.a.^ 4 * $ O ",
"$ + : % } o.f.f.<.<.<.i.a p t q 1 < < L | j.X.d.rXuXaXgX(.z.x.R..XOXoX=XMXnXMXlX1X1X&XG.) 4 4 f ~ $.%./ l.f.f.l.p.1.1.) 4 ; # $ ",
"$ $ % ; h V L %._._.`.`.;.w.w.6.C - e r 5 4 4 5 S K :.K >.,.,.>.r.c.b.c.^ ` ( W b d d d A *.&.:.5.t.t.t.xXzXxXMX;X'.].q.8 % #   ",
"$ $ ; , f g L 2._._.`.XXe.u.7.9.u C w u 4 4 3 3 C Z J @.,.5.8.,.c.U.U.y.Q ` ^ M d 4 2 < / 8.w.5.7.9.7.t.bXbXMXNX;XM.].w.7 $ X   ",
"$ % ; ; g W ^ 1.[.[.[.XXL.c.u.t.C p e s 1 , 3 1 C K F J ,.>.8.2.B.U.c.B.! ( ^ ! c d < < ~ w.6.w.t.8.5.7.bXbXnXmX:X_.[.q.< % X   ",
"& & ; , L ^ ^ 3.@X{.{.OXK.u.P.c.C p C u < < < 1 V S S S 0.z.0.z.K.U.U.h.) ! W M d 1 < , &.r.r.w.c.v.u.c.cXnXnXnX,X X Xg.3 % X X ",
"& * 2 , V K G %.w.0.7.e.Y.x.r.r.5.=.5.*.i g t u f f g f S / C G %.,.*.( b v b b t y y h 0.!.b.L.n.^.^.Q.;X2X;X;X).~.~.q.3 % X X ",
"$ ; > , C +.Z F O.O.$.5.z.r.8.r.c.w.y.6.C S j u 4 < 3 4 - y w e k O.F i v d f f t h k k e.].M.^.E.^.^.!.[.I.I.].P.y.x.1.8 % # # ",
"& * 2 , z F F G F H +.O.8.r.e.w.7.7.u.=.p y l u 4 < < 5 = = r y a C l i b c f f @ a a k 5.n.n.n.u.m.W.W.u.I.W.].L.t.v.&.8 ; # + ",
"* % 2 , W &.*.=.@.O.=.O.6.r.5.7.w.y.h.0.G A ^ Q 1 1 4 1 1 - - s h j t g M c 4 4 y x z k ;.n.I.W.I.I.I.W.{./.).*XL.e.t.&.4 % $ O ",
"% % , ; G.6X6X:X'.[.XX'.u.9.7.c.9XyXuXaXhXpXrXeX= w q - [ T R T T R R Y - s u g L.].W.!.t.w.e.P.9X8X,X8XmXvXmXBX;X].!.0.7 , $ o ",
"> * 3 , G.6X6X,X'.XX{.].c.c.9.c.9XyXuXyXgXgXgXrXi i i w v d d 8 3 4 4 f s V j h Q.].^.).L.t.7.B.9X6X6X9XvXvXmXBX;X^.{.s.3 % # o ",
"; : 3 , G.6X6X2X{.XXOX].y.t.9.b.9XiXrXrXpXgXhXtXi u a u c 8 6 7 2 ; 3 5 g A j A |.{.!.!.u.y.w.y.8X6X6X,XvXvXmXNX;X!.!.0.8 % # # ",
"; & 3 , g.&X&X%X^.XXXXXXu.v.b.~.9X0XiXrXiXhXgXpXC p p u v 2 2 6 : > > 5 h D V ~ !.!.!.[.P.y.y./.8X5X6X5XvXmXmXxXG.y.e.i.8 % $ o ",
"v 7 v v 4 4 4 _ 7XyXuX0Xe.r.v.z./._./.2XcXnXMXzX<.<.s.` T B N N > > 2 4 | d.o.k.aXuXaXaX(.7.K.v.].[.{.{.MXnXbXwX_ f , , 3 2 > : ",
"9 > 9 0 , , 3 ) 1X6X0X0X6.z.r.r.I.I._.2XzXbXbXzX<.<.-.^ Y [ B N : : , 9 { o.d.d.qXuX0XqXP.7.7.y.]._._.{.bXbXbX3X] 3 ; % 2 > 6 > ",
"8 7 7 7 > ; 2 E 1X8XqX6Xr.y.r.6.I.I._.*XzXnXnXzX<.1.<.^ B [ B n > * 3 9 | k.Z.d.0XuXqX0X/.e.6.t.{._._._.zXbXzX3X[ 3 % $ > > > 6 ",
"8 7 7 7 * * ; Y J.1X1X1Xr.t.w.w.I.{.{.2XMXNXNXnX` -.<.^ Y [ ] N > * , 9 X.j.f.d.jX0XjXjX$Xe.6.w.XX[.{.!.3X3X3X<XT , # $ 6 > > 7 ",
"* 2 2 & 8 N B m P Y Y _ / %.+.+.=.2.2.g.J.J.l.$X~ ~ / W m n 0 0 > > 4 v X.l.k.d.*X=X=X;Xq.:.&.$.5.2.2.&.[ E T P v n 7 > & O $ & ",
"# * * % 0 T T B , 3 4 4 g C S S K :.+.:.i.i.1.s.*.$./ j v 9 3 > * * 3 8 { X.d.l.Q.I.).).:.C G G &./ F x 3 , % % 9 n N 7 $ $ O o ",
"# * * % N B R 8 + ; 3 5 t C C C / / D :.2.1.s.s.G G G A v 8 2 > > * , c { |  .j.^.n.Q.I.%.D z j ~ ~ / h 4 ; $ $ 0 0 6 0 $ & & $ ",
"% > * & 0 B B 0 : : , 4 h L M h V Q Q Q ` _ -.} L W A M c 7 3 > % % 2 c [ { } j.g.g.g.q.( ! h h W W W g f ; & & 7 0 7 0 # $ $ o ",
"$ * > * $ * * > 7 2 4 9 ] ] I ] P P P T T P P E P T B T , * $ * * * > 4 ] R ] [ ] B ] B B ] B B ] B B ] 9 7 3 6 $ $ $ * $ & $ o ",
"$ & * * % 2 2 * 6 2 7 8 > 2 2 3 2 , 2 2 , > > > 2 , ; , % $ $ * * * * 2 * 2 3 2 2 ; * * > > 2 * * 2 2 2 9 7 > 7 * & $ * $ $ $ # ",
"$ & * % * * > * 8 > 3 7 * * > > ; % + : : ; % : % % * : # $ $ % % % * > * ; * * * * % & % % $ $ * & $ * 7 7 > 7 $ & & & O O o & ",
"% 2 * 2 * > 2 > 7 7 6 3 + $ & * : : + o $ $ O $ $ % % & $ # & * * * $ 3 % * % * % > $ % # * % $ % % # $ 8 > > 2 & $ & & O $ o $ "
};
